<?xml version="1.0" encoding="UTF-8"?>
<!DOCTYPE svg PUBLIC "-//W3C//DTD SVG 1.1//EN" "http://www.w3.org/Graphics/SVG/1.1/DTD/svg11.dtd">
<svg xmlns="http://www.w3.org/2000/svg" version="1.1" width="512px" height="512px" style="shape-rendering:geometricPrecision; text-rendering:geometricPrecision; image-rendering:optimizeQuality; fill-rule:evenodd; clip-rule:evenodd" xmlns:xlink="http://www.w3.org/1999/xlink">
<g><path style="opacity:0.973" fill="#616162" d="M 511.5,237.5 C 511.5,244.167 511.5,250.833 511.5,257.5C 507.713,264.785 502.046,270.285 494.5,274C 479.892,275.432 465.225,275.932 450.5,275.5C 450.667,345.167 450.5,414.834 450,484.5C 449.073,492.761 444.573,497.928 436.5,500C 392.5,500.667 348.5,500.667 304.5,500C 298.499,498.664 294.332,495.164 292,489.5C 291.5,445.501 291.333,401.501 291.5,357.5C 267.5,357.5 243.5,357.5 219.5,357.5C 219.667,401.501 219.5,445.501 219,489.5C 216.668,495.164 212.501,498.664 206.5,500C 162.5,500.667 118.5,500.667 74.5,500C 66.4271,497.928 61.9271,492.761 61,484.5C 60.5,414.834 60.3333,345.167 60.5,275.5C 45.7747,275.932 31.108,275.432 16.5,274C 8.95363,270.285 3.28696,264.785 -0.5,257.5C -0.5,250.833 -0.5,244.167 -0.5,237.5C 2.5032,231.983 6.5032,227.149 11.5,223C 86.6894,154.9 161.689,86.5668 236.5,18C 249.167,8 261.833,8 274.5,18C 290.667,32.8333 306.833,47.6667 323,62.5C 322.826,51.984 327.659,45.1507 337.5,42C 374.167,41.3333 410.833,41.3333 447.5,42C 455.114,43.9471 459.614,48.7804 461,56.5C 461.333,100.833 461.667,145.167 462,189.5C 474.5,200.667 487,211.833 499.5,223C 504.497,227.149 508.497,231.983 511.5,237.5 Z M 254.5,45.5 C 280.241,67.734 305.575,90.5673 330.5,114C 341.443,119.797 349.943,117.297 356,106.5C 357.375,95.8888 357.875,85.2221 357.5,74.5C 381.167,74.5 404.833,74.5 428.5,74.5C 428.333,116.835 428.5,159.168 429,201.5C 430.561,204.783 432.727,207.617 435.5,210C 447.5,220.667 459.5,231.333 471.5,242C 457.5,242.333 443.5,242.667 429.5,243C 422.483,245.352 418.316,250.185 417,257.5C 416.5,327.499 416.333,397.499 416.5,467.5C 385.833,467.5 355.167,467.5 324.5,467.5C 324.974,423.461 324.474,379.461 323,335.5C 320.549,329.384 316.049,325.884 309.5,325C 273.5,324.333 237.5,324.333 201.5,325C 194.951,325.884 190.451,329.384 188,335.5C 186.526,379.461 186.026,423.461 186.5,467.5C 155.833,467.5 125.167,467.5 94.5,467.5C 94.6667,397.499 94.5,327.499 94,257.5C 92.6838,250.185 88.5171,245.352 81.5,243C 67.5,242.667 53.5,242.333 39.5,242C 111.662,177.003 183.329,111.503 254.5,45.5 Z"/></g>
</svg>
